<svg width="78" height="65" viewBox="0 0 78 65" fill="none" xmlns="http://www.w3.org/2000/svg">
<path d="M47.5018 38.422C42.4603 48.702 30.2252 52.985 20.2011 48.069C10.177 43.1531 6.07261 30.8569 11.1141 20.5769C16.1556 10.2968 28.3907 6.01381 38.4148 10.9298C48.4389 15.8458 52.5433 28.142 47.5018 38.422Z" stroke="url(#paint0_linear_39_18)" stroke-opacity="0.45" stroke-width="3"/>
<path d="M47.5018 38.422C42.4603 48.702 30.2252 52.985 20.2011 48.069C10.177 43.1531 6.07261 30.8569 11.1141 20.5769C16.1556 10.2968 28.3907 6.01381 38.4148 10.9298C48.4389 15.8458 52.5433 28.142 47.5018 38.422Z" stroke="url(#paint1_linear_39_18)" stroke-opacity="0.5" stroke-width="3" style="mix-blend-mode:overlay"/>
<path d="M47.5018 38.422C42.4603 48.702 30.2252 52.985 20.2011 48.069C10.177 43.1531 6.07261 30.8569 11.1141 20.5769C16.1556 10.2968 28.3907 6.01381 38.4148 10.9298C48.4389 15.8458 52.5433 28.142 47.5018 38.422Z" stroke="#C1A875" stroke-width="3" style="mix-blend-mode:color"/>
<path d="M55.4472 61.7883C43.928 62.6005 34.0158 54.1653 33.231 43.0349C32.4463 31.9046 41.0769 22.1621 52.5961 21.3499C64.1154 20.5377 74.0276 28.9729 74.8123 40.1033C75.5971 51.2336 66.9665 60.9761 55.4472 61.7883Z" stroke="url(#paint2_linear_39_18)" stroke-opacity="0.45" stroke-width="3"/>
<path d="M55.4472 61.7883C43.928 62.6005 34.0158 54.1653 33.231 43.0349C32.4463 31.9046 41.0769 22.1621 52.5961 21.3499C64.1154 20.5377 74.0276 28.9729 74.8123 40.1033C75.5971 51.2336 66.9665 60.9761 55.4472 61.7883Z" stroke="url(#paint3_linear_39_18)" stroke-opacity="0.5" stroke-width="3" style="mix-blend-mode:overlay"/>
<path d="M55.4472 61.7883C43.928 62.6005 34.0158 54.1653 33.231 43.0349C32.4463 31.9046 41.0769 22.1621 52.5961 21.3499C64.1154 20.5377 74.0276 28.9729 74.8123 40.1033C75.5971 51.2336 66.9665 60.9761 55.4472 61.7883Z" stroke="#C1A875" stroke-width="3" style="mix-blend-mode:color"/>
<defs>
<linearGradient id="paint0_linear_39_18" x1="9.48374" y1="25.9756" x2="50.1192" y2="35.4919" gradientUnits="userSpaceOnUse">
<stop stop-color="#576265"/>
<stop offset="0.172016" stop-color="#9EA1A1"/>
<stop offset="0.45741" stop-color="#848B8A"/>
<stop offset="0.553567" stop-color="#576265"/>
<stop offset="0.823421" stop-color="#576265"/>
<stop offset="0.925155" stop-color="#757A7B"/>
<stop offset="1" stop-color="#576265"/>
</linearGradient>
<linearGradient id="paint1_linear_39_18" x1="25.3683" y1="27.5674" x2="27.4287" y2="2.98433" gradientUnits="userSpaceOnUse">
<stop stop-color="white" stop-opacity="0"/>
<stop offset="1" stop-color="#FDF0D7"/>
</linearGradient>
<linearGradient id="paint2_linear_39_18" x1="47.0691" y1="22.6558" x2="59.202" y2="62.6141" gradientUnits="userSpaceOnUse">
<stop stop-color="#576265"/>
<stop offset="0.172016" stop-color="#9EA1A1"/>
<stop offset="0.45741" stop-color="#848B8A"/>
<stop offset="0.553567" stop-color="#576265"/>
<stop offset="0.823421" stop-color="#576265"/>
<stop offset="0.925155" stop-color="#757A7B"/>
<stop offset="1" stop-color="#576265"/>
</linearGradient>
<linearGradient id="paint3_linear_39_18" x1="53.713" y1="37.191" x2="76.1186" y2="26.5036" gradientUnits="userSpaceOnUse">
<stop stop-color="white" stop-opacity="0"/>
<stop offset="1" stop-color="#FDF0D7"/>
</linearGradient>
</defs>
</svg>
